<svg width="70" height="70" viewBox="0 0 70 70" fill="none" xmlns="http://www.w3.org/2000/svg">
<path d="M34.9999 64.1666C30.9652 64.1666 27.1735 63.4005 23.6249 61.8682C20.0763 60.336 16.9895 58.2584 14.3645 55.6353C11.7395 53.0123 9.66187 49.9255 8.13159 46.3749C6.60131 42.8244 5.8352 39.0327 5.83326 34.9999C5.83131 30.9671 6.59742 27.1755 8.13159 23.6249C9.66576 20.0744 11.7434 16.9876 14.3645 14.3645C16.9856 11.7414 20.0724 9.66381 23.6249 8.13159C27.1774 6.59936 30.9691 5.83325 34.9999 5.83325C39.0308 5.83325 42.8224 6.59936 46.3749 8.13159C49.9274 9.66381 53.0142 11.7414 55.6353 14.3645C58.2565 16.9876 60.3351 20.0744 61.8712 23.6249C63.4073 27.1755 64.1724 30.9671 64.1666 34.9999C64.1608 39.0327 63.3946 42.8244 61.8683 46.3749C60.3419 49.9255 58.2642 53.0123 55.6353 55.6353C53.0065 58.2584 49.9196 60.337 46.3749 61.8712C42.8302 63.4053 39.0385 64.1705 34.9999 64.1666ZM34.9999 58.3332C37.6249 58.3332 40.1527 57.9084 42.5833 57.0587C45.0138 56.2089 47.2499 54.981 49.2916 53.3749L16.6249 20.7083C15.0208 22.7499 13.7928 24.986 12.9412 27.4166C12.0895 29.8471 11.6646 32.3749 11.6666 34.9999C11.6666 41.5138 13.927 47.0312 18.4478 51.552C22.9687 56.0728 28.486 58.3332 34.9999 58.3332ZM53.3749 49.2916C54.9791 47.2499 56.207 45.0138 57.0587 42.5833C57.9103 40.1527 58.3352 37.6249 58.3333 34.9999C58.3333 28.486 56.0728 22.9687 51.552 18.4478C47.0312 13.927 41.5138 11.6666 34.9999 11.6666C32.3749 11.6666 29.8471 12.0914 27.4166 12.9412C24.986 13.7909 22.7499 15.0188 20.7083 16.6249L53.3749 49.2916Z" fill="#FFD95C" fill-opacity="0.69"/>
</svg>
