<svg width="70" height="70" viewBox="0 0 70 70" fill="none" xmlns="http://www.w3.org/2000/svg">
<path d="M34.9999 61.2501L30.7708 57.4584C25.861 53.0348 21.802 49.2188 18.5937 46.0105C15.3853 42.8022 12.8333 39.9215 10.9374 37.3684C9.04159 34.8154 7.71742 32.4704 6.96492 30.3334C6.21242 28.1965 5.8352 26.009 5.83325 23.7709C5.83325 19.2015 7.3645 15.3855 10.427 12.323C13.4895 9.2605 17.3055 7.72925 21.8749 7.72925C24.4027 7.72925 26.8089 8.26397 29.0937 9.33341C31.3784 10.4029 33.3471 11.9098 34.9999 13.8542C36.6527 11.9098 38.6214 10.4029 40.9062 9.33341C43.1909 8.26397 45.5971 7.72925 48.1249 7.72925C52.6944 7.72925 56.5103 9.2605 59.5728 12.323C62.6353 15.3855 64.1666 19.2015 64.1666 23.7709C64.1666 26.007 63.7903 28.1945 63.0378 30.3334C62.2853 32.4723 60.9602 34.8173 59.0624 37.3684C57.1646 39.9195 54.6126 42.8002 51.4062 46.0105C48.1998 49.2208 44.1408 53.0368 39.2291 57.4584L34.9999 61.2501ZM34.9999 53.3751C39.6666 49.1945 43.5069 45.6099 46.5207 42.6213C49.5346 39.6327 51.9166 37.032 53.6666 34.8192C55.4166 32.6065 56.6319 30.6367 57.3124 28.9101C57.993 27.1834 58.3332 25.4704 58.3332 23.7709C58.3332 20.8542 57.361 18.4237 55.4166 16.4792C53.4721 14.5348 51.0416 13.5626 48.1249 13.5626C45.8402 13.5626 43.7256 14.2062 41.7812 15.4934C39.8367 16.7806 38.4999 18.4217 37.7708 20.4167H32.2291C31.4999 18.4237 30.1631 16.7836 28.2187 15.4963C26.2742 14.2091 24.1596 13.5645 21.8749 13.5626C18.9583 13.5626 16.5277 14.5348 14.5833 16.4792C12.6388 18.4237 11.6666 20.8542 11.6666 23.7709C11.6666 25.4723 12.0069 27.1863 12.6874 28.913C13.368 30.6397 14.5833 32.6084 16.3333 34.8192C18.0833 37.0301 20.4652 39.6308 23.4791 42.6213C26.493 45.6119 30.3333 49.1965 34.9999 53.3751Z" fill="#F0A69A"/>
</svg>
