<svg width="61" height="60" viewBox="0 0 61 60" fill="none" xmlns="http://www.w3.org/2000/svg">
<path d="M47.75 49.375H15.25C10.08 49.375 5.875 45.17 5.875 40V20C5.875 14.83 10.08 10.625 15.25 10.625H47.75C51.5425 10.625 54.625 13.7075 54.625 17.5V42.5C54.625 46.2925 51.5425 49.375 47.75 49.375ZM15.25 14.375C12.1475 14.375 9.625 16.8975 9.625 20V40C9.625 43.1025 12.1475 45.625 15.25 45.625H47.75C49.4725 45.625 50.875 44.2225 50.875 42.5V17.5C50.875 15.7775 49.4725 14.375 47.75 14.375H15.25Z" fill="#01081B"/>
<path d="M52.75 20.625H42.95C40.485 20.625 38.07 21.6275 36.325 23.375C34.5525 25.1475 33.575 27.5 33.575 30C33.575 35.17 37.78 39.375 42.95 39.375H52.75C53.785 39.375 54.625 38.535 54.625 37.5V22.5C54.625 21.465 53.785 20.625 52.75 20.625ZM50.875 35.625H42.95C39.8475 35.625 37.325 33.1025 37.325 30C37.325 28.5 37.91 27.09 38.975 26.025C40.0225 24.9775 41.4725 24.375 42.95 24.375H50.875V35.625ZM44.075 28.675C44.425 29.025 44.625 29.5 44.625 30C44.625 30.25 44.575 30.475 44.475 30.725C44.4 30.95 44.25 31.15 44.075 31.325C43.725 31.675 43.25 31.875 42.75 31.875C42.25 31.875 41.775 31.675 41.4249 31.325C41.0749 30.975 40.875 30.5 40.875 30C40.875 29.5 41.0749 29.025 41.4249 28.675C42.1249 27.975 43.375 27.975 44.075 28.675Z" fill="#2E68FD"/>
</svg>
