<svg width="61" height="60" viewBox="0 0 61 60" fill="none" xmlns="http://www.w3.org/2000/svg">
<path d="M47.625 12.5V30C47.625 31.035 46.785 31.875 45.75 31.875C44.715 31.875 43.875 31.035 43.875 30V12.5C43.875 10.7775 42.4725 9.375 40.75 9.375H15.75C14.0275 9.375 12.625 10.7775 12.625 12.5V45C12.625 46.7225 14.0275 48.125 15.75 48.125H30.75C31.785 48.125 32.625 48.965 32.625 50C32.625 51.035 31.785 51.875 30.75 51.875H15.75C11.9575 51.875 8.875 48.7925 8.875 45V12.5C8.875 8.7075 11.9575 5.625 15.75 5.625H40.75C44.5425 5.625 47.625 8.7075 47.625 12.5ZM38.25 13.125H18.25C17.215 13.125 16.375 13.965 16.375 15C16.375 16.035 17.215 16.875 18.25 16.875H38.25C39.285 16.875 40.125 16.035 40.125 15C40.125 13.965 39.285 13.125 38.25 13.125ZM30.125 22.5C30.125 21.465 29.285 20.625 28.25 20.625H18.25C17.215 20.625 16.375 21.465 16.375 22.5C16.375 23.535 17.215 24.375 18.25 24.375H28.25C29.285 24.375 30.125 23.535 30.125 22.5ZM18.25 28.125C17.215 28.125 16.375 28.965 16.375 30C16.375 31.035 17.215 31.875 18.25 31.875H20.75C21.785 31.875 22.625 31.035 22.625 30C22.625 28.965 21.785 28.125 20.75 28.125H18.25Z" fill="#01081B"/>
<g clip-path="url(#clip0_15_235)">
<path d="M38.4589 34.5L38.4589 41.4588L44 44" stroke="#2E68FD" stroke-width="3.47504" stroke-linecap="round" stroke-linejoin="round"/>
<path d="M38.2501 52.5834C44.9235 52.5834 50.3334 47.1735 50.3334 40.5C50.3334 33.8266 44.9235 28.4167 38.2501 28.4167C31.5766 28.4167 26.1667 33.8266 26.1667 40.5C26.1667 47.1735 31.5766 52.5834 38.2501 52.5834Z" stroke="#2E68FD" stroke-width="3.86667" stroke-linecap="round" stroke-linejoin="round"/>
</g>
<defs>
<clipPath id="clip0_15_235">
<rect width="29" height="29" fill="white" transform="translate(23.75 26)"/>
</clipPath>
</defs>
</svg>
