<svg width="61" height="60" viewBox="0 0 61 60" fill="none" xmlns="http://www.w3.org/2000/svg">
<path d="M45.75 8.125H13.25C9.4575 8.125 6.375 11.2075 6.375 15V35C6.375 38.7925 9.4575 41.875 13.25 41.875H31.825C32.86 41.875 33.7 41.035 33.7 40C33.7 38.965 32.86 38.125 31.825 38.125H13.25C11.5275 38.125 10.125 36.7225 10.125 35V21.875H48.875V29.575C48.875 30.61 49.715 31.45 50.75 31.45C51.785 31.45 52.625 30.61 52.625 29.575V15C52.625 11.2075 49.5425 8.125 45.75 8.125ZM10.125 18.125V15C10.125 13.2775 11.5275 11.875 13.25 11.875H45.75C47.4725 11.875 48.875 13.2775 48.875 15V18.125H10.125ZM25.75 30.625C26.785 30.625 27.625 31.465 27.625 32.5C27.625 33.535 26.785 34.375 25.75 34.375H23.25C22.215 34.375 21.375 33.535 21.375 32.5C21.375 31.465 22.215 30.625 23.25 30.625H25.75ZM18.25 30.625C19.285 30.625 20.125 31.465 20.125 32.5C20.125 33.535 19.285 34.375 18.25 34.375H15.75C14.715 34.375 13.875 33.535 13.875 32.5C13.875 31.465 14.715 30.625 15.75 30.625H18.25Z" fill="#01081B"/>
<path d="M52.615 28.46L44.18 23.7025C42.81 22.93 41.1825 22.9325 39.8225 23.7025L31.385 28.46C29.8375 29.335 28.875 31.045 28.875 32.93V33.75C28.875 42.285 34.0625 49.71 41.49 51.805C41.6575 51.8525 41.83 51.875 42 51.875C42.17 51.875 42.3425 51.85 42.51 51.805C49.9375 49.71 55.125 42.285 55.125 33.75V32.93C55.125 31.045 54.1625 29.335 52.615 28.46ZM51.375 33.75C51.375 40.4125 47.5475 46.2025 42 48.04C36.4525 46.205 32.625 40.4125 32.625 33.75V32.93C32.625 32.4125 32.8675 31.93 33.225 31.7275L41.665 26.97C41.775 26.9075 41.8875 26.8775 42 26.8775C42.1125 26.8775 42.2275 26.9075 42.3375 26.97L50.775 31.7275C51.135 31.93 51.375 32.4125 51.375 32.93V33.75ZM47.075 33.675C47.8075 34.4075 47.8075 35.595 47.075 36.3275L42.075 41.3275C41.71 41.6925 41.23 41.8775 40.75 41.8775C40.27 41.8775 39.79 41.695 39.425 41.3275L36.925 38.8275C36.1925 38.095 36.1925 36.9075 36.925 36.175C37.6575 35.4425 38.845 35.4425 39.5775 36.175L40.7525 37.35L44.4275 33.675C45.16 32.9425 46.3475 32.9425 47.08 33.675H47.075Z" fill="#2E68FD"/>
</svg>
