<svg width="22" height="40" viewBox="0 0 22 40" fill="none" xmlns="http://www.w3.org/2000/svg">
<path d="M10.1569 22.5336C7.09174 20.5422 4.20205 19.3544 0.927455 15.8074C0.430784 17.482 0.237318 19.2672 0.371945 21.0157C2.5285 20.4223 6.20989 20.0577 10.1569 22.5336Z" fill="url(#paint0_linear_48_164)"/>
<path d="M11.9892 38.5041C11.9604 38.8995 11.8669 39.287 11.682 39.6589C13.2349 37.7359 14.6271 35.6384 15.2654 33.2949C15.9038 30.9514 15.7087 28.3189 14.2797 26.3118C13.9257 25.8147 13.5058 25.3279 13.047 24.8632C12.8048 24.621 12.5624 24.3916 12.3202 24.1743C12.2894 24.147 12.2591 24.1192 12.2282 24.0921C12.2255 24.0897 12.2227 24.0872 12.2199 24.0848C11.6141 23.5545 10.971 23.0688 10.3364 22.6507C10.2764 22.6112 10.2166 22.5725 10.1567 22.5336C6.2096 20.0578 2.52827 20.4223 0.371715 21.0157L0.371719 21.0158C11.949 29.3868 12.388 35.9516 11.9892 38.5041Z" fill="url(#paint1_linear_48_164)"/>
<path d="M0.371826 21.0161C0.371826 21.0161 5.4774 24.9284 9.27924 32.5839C9.27931 32.5841 9.27938 32.5842 9.27945 32.5844C10.2441 33.4062 11.0047 34.4296 11.4058 35.5713C11.7405 36.5243 12.0595 37.5382 11.9893 38.5044C12.3882 35.9519 11.9491 29.387 0.371826 21.0161Z" fill="url(#paint2_linear_48_164)"/>
<path d="M0.371826 21.0161C0.605817 24.0546 1.83154 26.9824 4.18487 29.0263C5.28687 29.9833 7.65313 31.3528 8.83007 32.2264C8.98427 32.3409 9.13408 32.4605 9.27952 32.5844C9.27945 32.5842 9.27938 32.5841 9.27931 32.5839C5.4774 24.9284 0.371826 21.0161 0.371826 21.0161Z" fill="url(#paint3_linear_48_164)"/>
<path d="M17.6222 21.2425C10.2155 14.4729 6.7698 5.21075 5.87579 2.48843C5.77184 2.2347 5.69041 1.97675 5.6353 1.71551C5.63362 1.70971 5.63259 1.70592 5.63259 1.70592C5.63259 1.70592 5.63324 1.70623 5.6335 1.70635C5.51729 1.14925 5.52122 0.577494 5.69021 0C5.69021 0 -2.09941 7.9749 11.0009 21.8166C11.0009 21.8166 10.9987 21.8156 10.9969 21.8148C12.156 22.6383 13.2648 23.5147 14.2423 24.5267C14.2918 24.578 14.3406 24.6301 14.3895 24.6822C14.9248 23.0971 16.1201 21.998 17.6222 21.2425Z" fill="url(#paint4_linear_48_164)"/>
<path d="M14.5738 10.4211C12.7291 9.06685 10.0929 7.25256 8.36617 5.70153C7.35013 4.78886 6.36649 3.68509 5.87622 2.48828C6.77023 5.2106 10.2159 14.4728 17.6226 21.2423C18.9004 20.5996 20.3998 20.2052 21.9037 19.9715C21.3615 15.5088 18.64 13.4063 14.5738 10.4211Z" fill="url(#paint5_linear_48_164)"/>
<path d="M5.69024 0C3.328 1.13624 1.4577 3.15769 0.579751 5.52334C-0.298195 7.88906 -0.174111 10.573 0.918708 12.8572C2.1791 15.4915 4.58742 17.4646 7.06227 19.1612C8.36376 20.0534 9.71133 20.9014 10.997 21.8149C10.9988 21.8156 11.0009 21.8166 11.0009 21.8166C-2.09938 7.9749 5.69024 0 5.69024 0Z" fill="url(#paint6_linear_48_164)"/>
<path d="M17.1808 32.4167C19.5216 30.2798 21.1011 27.4307 21.7149 24.4112C20.2336 23.4546 18.8717 22.3839 17.6225 21.2422C16.1204 21.9978 14.9252 23.0968 14.3898 24.6819C16.372 26.8013 17.7295 29.6427 17.1808 32.4167Z" fill="url(#paint7_linear_48_164)"/>
<path d="M21.7146 24.4115C22.0066 22.9755 22.0811 21.501 21.9133 20.046C21.9104 20.0208 21.9065 19.9967 21.9034 19.9717C20.3995 20.2054 18.9001 20.5998 17.6223 21.2425C18.8715 22.3842 20.2334 23.4549 21.7146 24.4115Z" fill="url(#paint8_linear_48_164)"/>
<defs>
<linearGradient id="paint0_linear_48_164" x1="0.300048" y1="19.3384" x2="10.0302" y2="18.9902" gradientUnits="userSpaceOnUse">
<stop stop-color="#B974FF"/>
<stop offset="0.6071" stop-color="#932EFA"/>
<stop offset="1" stop-color="#6104C0"/>
</linearGradient>
<linearGradient id="paint1_linear_48_164" x1="0.70528" y1="30.3386" x2="15.5845" y2="29.8061" gradientUnits="userSpaceOnUse">
<stop stop-color="#6104C0"/>
<stop offset="0.3929" stop-color="#932EFA"/>
<stop offset="1" stop-color="#B974FF"/>
</linearGradient>
<linearGradient id="paint2_linear_48_164" x1="0.69105" y1="29.9361" x2="11.8079" y2="29.5382" gradientUnits="userSpaceOnUse">
<stop stop-color="#6104C0"/>
<stop offset="0.3929" stop-color="#932EFA"/>
<stop offset="1" stop-color="#B974FF"/>
</linearGradient>
<linearGradient id="paint3_linear_48_164" x1="5.03751" y1="32.7203" x2="4.65814" y2="20.8788" gradientUnits="userSpaceOnUse">
<stop stop-color="#6104C0"/>
<stop offset="0.3929" stop-color="#932EFA"/>
<stop offset="1" stop-color="#B974FF"/>
</linearGradient>
<linearGradient id="paint4_linear_48_164" x1="-0.000110223" y1="12.3411" x2="22.0017" y2="12.3411" gradientUnits="userSpaceOnUse">
<stop stop-color="#0437B9"/>
<stop offset="0.5612" stop-color="#2E68FD"/>
<stop offset="1" stop-color="#5E8BFC"/>
</linearGradient>
<linearGradient id="paint5_linear_48_164" x1="10.8002" y1="12.9176" x2="16.542" y2="9.41399" gradientUnits="userSpaceOnUse">
<stop stop-color="#5E8BFC"/>
<stop offset="0.2004" stop-color="#6B94FB"/>
<stop offset="0.4235" stop-color="#2E68FD"/>
<stop offset="1" stop-color="#0437B9"/>
</linearGradient>
<linearGradient id="paint6_linear_48_164" x1="1.83482" y1="14.4572" x2="11.0724" y2="8.82036" gradientUnits="userSpaceOnUse">
<stop stop-color="#0437B9"/>
<stop offset="0.3929" stop-color="#2E68FD"/>
<stop offset="1" stop-color="#5E8BFC"/>
</linearGradient>
<linearGradient id="paint7_linear_48_164" x1="18.0523" y1="32.4167" x2="18.0523" y2="21.2422" gradientUnits="userSpaceOnUse">
<stop stop-color="#5E8BFC"/>
<stop offset="0.4388" stop-color="#2E68FD"/>
<stop offset="1" stop-color="#0437B9"/>
</linearGradient>
<linearGradient id="paint8_linear_48_164" x1="19.8119" y1="24.4115" x2="19.8119" y2="19.9717" gradientUnits="userSpaceOnUse">
<stop stop-color="#5E8BFC"/>
<stop offset="0.4388" stop-color="#2E68FD"/>
<stop offset="1" stop-color="#0437B9"/>
</linearGradient>
</defs>
</svg>
