<svg width="60" height="60" viewBox="0 0 60 60" fill="none" xmlns="http://www.w3.org/2000/svg">
<path d="M30 57.5C25.3333 57.5 21.0417 56.4375 17.125 54.3125C13.2083 52.1875 10 49.3542 7.5 45.8125V52.5H2.5V37.5H17.5V42.5H11.3125C13.3125 45.5 15.9483 47.9167 19.22 49.75C22.4917 51.5833 26.085 52.5 30 52.5C33.125 52.5 36.0525 51.9067 38.7825 50.72C41.5125 49.5333 43.8875 47.9292 45.9075 45.9075C47.9275 43.8858 49.5317 41.5108 50.72 38.7825C51.9083 36.0542 52.5017 33.1267 52.5 30H57.5C57.5 33.7917 56.7817 37.3542 55.345 40.6875C53.9083 44.0208 51.9392 46.9375 49.4375 49.4375C46.9358 51.9375 44.0192 53.9067 40.6875 55.345C37.3558 56.7833 33.7933 57.5017 30 57.5ZM27.75 47.5V44.25C25.7917 43.7917 24.1983 42.9483 22.97 41.72C21.7417 40.4917 20.835 38.8767 20.25 36.875L24.375 35.25C24.875 36.9583 25.6567 38.24 26.72 39.095C27.7833 39.95 29.0017 40.3767 30.375 40.375C31.7483 40.3733 32.9258 40.0508 33.9075 39.4075C34.8892 38.7642 35.3783 37.7533 35.375 36.375C35.375 35.1667 34.865 34.1875 33.845 33.4375C32.825 32.6875 31.0017 31.8333 28.375 30.875C25.9167 30 24.115 28.9583 22.97 27.75C21.825 26.5417 21.2517 24.9583 21.25 23C21.25 21.2917 21.8442 19.74 23.0325 18.345C24.2208 16.95 25.835 16.0433 27.875 15.625V12.5H32.25V15.625C33.75 15.75 35.115 16.3542 36.345 17.4375C37.575 18.5208 38.4183 19.7917 38.875 21.25L34.875 22.875C34.5417 21.9167 34 21.115 33.25 20.47C32.5 19.825 31.4583 19.5017 30.125 19.5C28.6667 19.5 27.5517 19.8125 26.78 20.4375C26.0083 21.0625 25.6233 21.9167 25.625 23C25.6267 24.0833 26.1058 24.9375 27.0625 25.5625C28.0192 26.1875 29.7483 26.9167 32.25 27.75C35.25 28.8333 37.25 30.1042 38.25 31.5625C39.25 33.0208 39.75 34.625 39.75 36.375C39.75 37.5833 39.5417 38.6458 39.125 39.5625C38.7083 40.4792 38.1558 41.2608 37.4675 41.9075C36.7792 42.5542 35.9775 43.075 35.0625 43.47C34.1475 43.865 33.1683 44.1667 32.125 44.375V47.5H27.75ZM2.5 30C2.5 26.2083 3.21917 22.6458 4.6575 19.3125C6.09583 15.9792 8.06417 13.0625 10.5625 10.5625C13.0608 8.0625 15.9775 6.09417 19.3125 4.6575C22.6475 3.22083 26.21 2.50167 30 2.5C34.6667 2.5 38.9583 3.5625 42.875 5.6875C46.7917 7.8125 50 10.6458 52.5 14.1875V7.5H57.5V22.5H42.5V17.5H48.6875C46.6875 14.5 44.0525 12.0833 40.7825 10.25C37.5125 8.41667 33.9183 7.5 30 7.5C26.875 7.5 23.9483 8.09417 21.22 9.2825C18.4917 10.4708 16.1167 12.0742 14.095 14.0925C12.0733 16.1108 10.4692 18.4858 9.2825 21.2175C8.09583 23.9492 7.50167 26.8767 7.5 30H2.5Z" fill="#FBD058"/>
</svg>
