<svg width="61" height="60" viewBox="0 0 61 60" fill="none" xmlns="http://www.w3.org/2000/svg">
<path d="M48 10.625H13C9.2075 10.625 6.125 13.7075 6.125 17.5V42.5C6.125 46.2925 9.2075 49.375 13 49.375H48C51.7925 49.375 54.875 46.2925 54.875 42.5V17.5C54.875 13.7075 51.7925 10.625 48 10.625ZM13 14.375H48C49.7225 14.375 51.125 15.7775 51.125 17.5V23.125H9.875V17.5C9.875 15.7775 11.2775 14.375 13 14.375ZM48 45.625H13C11.2775 45.625 9.875 44.2225 9.875 42.5V26.875H51.125V42.5C51.125 44.2225 49.7225 45.625 48 45.625Z" fill="#2E6BD6"/>
<path d="M22.375 40C22.375 41.035 21.535 41.875 20.5 41.875H15.5C14.465 41.875 13.625 41.035 13.625 40C13.625 38.965 14.465 38.125 15.5 38.125H20.5C21.535 38.125 22.375 38.965 22.375 40ZM33 38.125H28C26.965 38.125 26.125 38.965 26.125 40C26.125 41.035 26.965 41.875 28 41.875H33C34.035 41.875 34.875 41.035 34.875 40C34.875 38.965 34.035 38.125 33 38.125Z" fill="#2E68FD"/>
</svg>
