<svg width="60" height="60" viewBox="0 0 60 60" fill="none" xmlns="http://www.w3.org/2000/svg">
<path d="M10 55C8.625 55 7.44833 54.5108 6.47 53.5325C5.49167 52.5542 5.00167 51.3767 5 50V40H10V50H20V55H10ZM5 20V10C5 8.625 5.49 7.44833 6.47 6.47C7.45 5.49167 8.62667 5.00167 10 5H20V10H10V20H5ZM40 55V50H50V40H55V50C55 51.375 54.5108 52.5525 53.5325 53.5325C52.5542 54.5125 51.3767 55.0017 50 55H40ZM50 20V10H40V5H50C51.375 5 52.5525 5.49 53.5325 6.47C54.5125 7.45 55.0017 8.62667 55 10V20H50ZM30 30C27.875 30 26.0942 29.2817 24.6575 27.845C23.2208 26.4083 22.5017 24.6267 22.5 22.5C22.5 20.4167 23.2192 18.6458 24.6575 17.1875C26.0958 15.7292 27.8767 15 30 15C32.0833 15 33.8542 15.7292 35.3125 17.1875C36.7708 18.6458 37.5 20.4167 37.5 22.5C37.5 24.625 36.7708 26.4067 35.3125 27.845C33.8542 29.2833 32.0833 30.0017 30 30ZM15 45V40.25C15 39.375 15.2192 38.5525 15.6575 37.7825C16.0958 37.0125 16.6892 36.3975 17.4375 35.9375C19.3542 34.8125 21.365 33.9583 23.47 33.375C25.575 32.7917 27.7517 32.5 30 32.5C32.2483 32.5 34.4258 32.7917 36.5325 33.375C38.6392 33.9583 40.6492 34.8125 42.5625 35.9375C43.3125 36.3958 43.9067 37.0108 44.345 37.7825C44.7833 38.5542 45.0017 39.3767 45 40.25V45H15Z" fill="#B974FF"/>
</svg>
