<svg width="209" height="42" viewBox="0 0 209 42" fill="none" xmlns="http://www.w3.org/2000/svg">
<path d="M10.1569 23.5337C7.09174 21.5424 4.20205 20.3546 0.927455 16.8075C0.430784 18.4822 0.237318 20.2673 0.371945 22.0158C2.5285 21.4224 6.20989 21.0578 10.1569 23.5337Z" fill="url(#paint0_linear_115_1291)"/>
<path d="M11.9892 39.5043C11.9604 39.8997 11.8669 40.2872 11.682 40.6591C13.2349 38.7361 14.6271 36.6386 15.2654 34.2951C15.9038 31.9516 15.7087 29.3191 14.2797 27.3121C13.9257 26.815 13.5058 26.3281 13.047 25.8635C12.8048 25.6212 12.5624 25.3919 12.3202 25.1746C12.2894 25.1472 12.2591 25.1194 12.2282 25.0923C12.2255 25.0899 12.2227 25.0875 12.2199 25.0851C11.6141 24.5547 10.971 24.069 10.3364 23.651C10.2764 23.6114 10.2166 23.5728 10.1567 23.5339C6.2096 21.058 2.52827 21.4226 0.371715 22.016L0.371719 22.0161C11.949 30.387 12.388 36.9519 11.9892 39.5043Z" fill="url(#paint1_linear_115_1291)"/>
<path d="M0.371826 22.0161C0.371826 22.0161 5.4774 25.9284 9.27924 33.5839C9.27931 33.5841 9.27938 33.5842 9.27945 33.5844C10.2441 34.4062 11.0047 35.4296 11.4058 36.5713C11.7405 37.5243 12.0595 38.5382 11.9893 39.5044C12.3882 36.9519 11.9491 30.387 0.371826 22.0161Z" fill="url(#paint2_linear_115_1291)"/>
<path d="M0.371826 22.0161C0.605817 25.0546 1.83154 27.9824 4.18487 30.0263C5.28687 30.9833 7.65313 32.3528 8.83007 33.2264C8.98427 33.3409 9.13408 33.4605 9.27952 33.5844C9.27945 33.5842 9.27938 33.5841 9.27931 33.5839C5.4774 25.9284 0.371826 22.0161 0.371826 22.0161Z" fill="url(#paint3_linear_115_1291)"/>
<path d="M17.6222 22.2425C10.2155 15.4729 6.7698 6.21075 5.87579 3.48843C5.77184 3.2347 5.69041 2.97675 5.6353 2.71551C5.63362 2.70971 5.63259 2.70592 5.63259 2.70592C5.63259 2.70592 5.63324 2.70623 5.6335 2.70635C5.51729 2.14925 5.52122 1.57749 5.69021 1C5.69021 1 -2.09941 8.9749 11.0009 22.8166C11.0009 22.8166 10.9987 22.8156 10.9969 22.8148C12.156 23.6383 13.2648 24.5147 14.2423 25.5267C14.2918 25.578 14.3406 25.6301 14.3895 25.6822C14.9248 24.0971 16.1201 22.998 17.6222 22.2425Z" fill="url(#paint4_linear_115_1291)"/>
<path d="M14.5738 11.4211C12.7291 10.0669 10.0929 8.25256 8.36617 6.70153C7.35013 5.78886 6.36649 4.68509 5.87622 3.48828C6.77023 6.2106 10.2159 15.4728 17.6226 22.2423C18.9004 21.5996 20.3998 21.2052 21.9037 20.9715C21.3615 16.5088 18.64 14.4063 14.5738 11.4211Z" fill="url(#paint5_linear_115_1291)"/>
<path d="M5.69024 1C3.328 2.13624 1.4577 4.15769 0.579751 6.52334C-0.298195 8.88906 -0.174111 11.573 0.918708 13.8572C2.1791 16.4915 4.58742 18.4646 7.06227 20.1612C8.36376 21.0534 9.71133 21.9014 10.997 22.8149C10.9988 22.8156 11.0009 22.8166 11.0009 22.8166C-2.09938 8.9749 5.69024 1 5.69024 1Z" fill="url(#paint6_linear_115_1291)"/>
<path d="M17.1807 33.4168C19.5214 31.2799 21.101 28.4308 21.7147 25.4113C20.2335 24.4547 18.8716 23.384 17.6224 22.2423C16.1203 22.9979 14.9251 24.097 14.3896 25.6821C16.3718 27.8014 17.7293 30.6428 17.1807 33.4168Z" fill="url(#paint7_linear_115_1291)"/>
<path d="M21.7146 25.4115C22.0066 23.9755 22.0811 22.501 21.9133 21.046C21.9104 21.0208 21.9065 20.9967 21.9034 20.9717C20.3995 21.2054 18.9001 21.5998 17.6223 22.2425C18.8715 23.3842 20.2334 24.4549 21.7146 25.4115Z" fill="url(#paint8_linear_115_1291)"/>
<path d="M38.7375 31.364C37.6548 31.364 36.6141 31.196 35.6155 30.86C34.6261 30.5147 33.7581 30.0247 33.0115 29.39C32.2648 28.746 31.7281 27.976 31.4015 27.08L34.6075 25.904C34.7381 26.2773 35.0041 26.618 35.4055 26.926C35.8068 27.234 36.2968 27.4813 36.8755 27.668C37.4541 27.8547 38.0748 27.948 38.7375 27.948C39.4188 27.948 40.0535 27.8453 40.6415 27.64C41.2388 27.4253 41.7195 27.1313 42.0835 26.758C42.4475 26.3753 42.6295 25.932 42.6295 25.428C42.6295 24.9147 42.4381 24.4947 42.0555 24.168C41.6728 23.832 41.1828 23.566 40.5855 23.37C39.9881 23.174 39.3721 23.0247 38.7375 22.922C37.3468 22.7073 36.1008 22.376 34.9995 21.928C33.8981 21.48 33.0255 20.8593 32.3815 20.066C31.7468 19.2727 31.4295 18.246 31.4295 16.986C31.4295 15.8007 31.7701 14.7647 32.4515 13.878C33.1328 12.9913 34.0288 12.3007 35.1395 11.806C36.2501 11.3113 37.4495 11.064 38.7375 11.064C39.8108 11.064 40.8468 11.232 41.8455 11.568C42.8441 11.904 43.7168 12.394 44.4635 13.038C45.2195 13.682 45.7608 14.4567 46.0875 15.362L42.8675 16.524C42.7368 16.1507 42.4708 15.81 42.0695 15.502C41.6681 15.194 41.1781 14.9513 40.5995 14.774C40.0208 14.5873 39.4001 14.494 38.7375 14.494C38.0748 14.4847 37.4448 14.592 36.8475 14.816C36.2595 15.0307 35.7788 15.3247 35.4055 15.698C35.0321 16.0713 34.8455 16.5007 34.8455 16.986C34.8455 17.6113 35.0181 18.0827 35.3635 18.4C35.7181 18.7173 36.1895 18.9507 36.7775 19.1C37.3655 19.24 38.0188 19.3707 38.7375 19.492C40.0441 19.6973 41.2528 20.0427 42.3635 20.528C43.4741 21.0133 44.3655 21.662 45.0375 22.474C45.7095 23.2767 46.0455 24.2613 46.0455 25.428C46.0455 26.6133 45.7095 27.654 45.0375 28.55C44.3655 29.4367 43.4741 30.1273 42.3635 30.622C41.2528 31.1167 40.0441 31.364 38.7375 31.364ZM56.33 20.416H53.614V31H50.198V20.416H48.126V17H50.198V12.604H53.614V17H56.33V20.416ZM58.3012 25.82V17H61.7172V24.924C61.7172 25.4747 61.8525 25.9787 62.1232 26.436C62.3938 26.884 62.7532 27.2433 63.2012 27.514C63.6585 27.7753 64.1578 27.906 64.6992 27.906C65.2592 27.906 65.7632 27.7753 66.2112 27.514C66.6592 27.2433 67.0185 26.884 67.2892 26.436C67.5598 25.9787 67.6952 25.4747 67.6952 24.924V17H71.1112L71.1252 31H67.7092L67.6952 29.726C67.2098 30.23 66.6358 30.6313 65.9732 30.93C65.3105 31.2193 64.6012 31.364 63.8452 31.364C62.8278 31.364 61.8992 31.1167 61.0592 30.622C60.2192 30.118 59.5472 29.4507 59.0432 28.62C58.5485 27.78 58.3012 26.8467 58.3012 25.82ZM84.2928 10H87.7088V31H84.2928V29.25C83.8448 29.8753 83.2801 30.384 82.5988 30.776C81.9175 31.168 81.1288 31.364 80.2328 31.364C79.2155 31.364 78.2635 31.1727 77.3768 30.79C76.4901 30.4073 75.7061 29.88 75.0248 29.208C74.3528 28.5267 73.8255 27.7427 73.4428 26.856C73.0601 25.9693 72.8688 25.0173 72.8688 24C72.8688 22.9827 73.0601 22.0307 73.4428 21.144C73.8255 20.2573 74.3528 19.478 75.0248 18.806C75.7061 18.1247 76.4901 17.5927 77.3768 17.21C78.2635 16.8273 79.2155 16.636 80.2328 16.636C81.1288 16.636 81.9175 16.832 82.5988 17.224C83.2801 17.6067 83.8448 18.1153 84.2928 18.75V10ZM80.2748 28.074C81.0028 28.074 81.6468 27.892 82.2068 27.528C82.7668 27.164 83.2055 26.674 83.5228 26.058C83.8401 25.4327 83.9988 24.7467 83.9988 24C83.9988 23.244 83.8401 22.558 83.5228 21.942C83.2055 21.3167 82.7621 20.822 82.1928 20.458C81.6328 20.094 80.9935 19.912 80.2748 19.912C79.5561 19.912 78.8981 20.0987 78.3008 20.472C77.7128 20.836 77.2415 21.326 76.8868 21.942C76.5415 22.558 76.3688 23.244 76.3688 24C76.3688 24.756 76.5461 25.442 76.9008 26.058C77.2555 26.674 77.7268 27.164 78.3148 27.528C78.9121 27.892 79.5655 28.074 80.2748 28.074ZM97.0133 31.364C95.7253 31.364 94.5493 31.0327 93.4853 30.37C92.4307 29.7073 91.586 28.816 90.9513 27.696C90.326 26.576 90.0133 25.3393 90.0133 23.986C90.0133 22.9687 90.1953 22.0167 90.5593 21.13C90.9233 20.234 91.4227 19.45 92.0573 18.778C92.7013 18.0967 93.448 17.5647 94.2973 17.182C95.1467 16.7993 96.052 16.608 97.0133 16.608C98.1053 16.608 99.104 16.8413 100.009 17.308C100.924 17.7653 101.699 18.3953 102.333 19.198C102.968 20.0007 103.43 20.9153 103.719 21.942C104.009 22.9687 104.074 24.042 103.915 25.162H93.6813C93.812 25.6847 94.0267 26.156 94.3253 26.576C94.624 26.9867 95.002 27.318 95.4593 27.57C95.9167 27.8127 96.4347 27.9387 97.0133 27.948C97.6107 27.9573 98.152 27.8173 98.6373 27.528C99.132 27.2293 99.5427 26.828 99.8693 26.324L103.355 27.136C102.786 28.3773 101.937 29.3947 100.807 30.188C99.678 30.972 98.4133 31.364 97.0133 31.364ZM93.5693 22.6H100.457C100.355 22.04 100.135 21.536 99.7993 21.088C99.4727 20.6307 99.0667 20.2667 98.5813 19.996C98.096 19.7253 97.5733 19.59 97.0133 19.59C96.4533 19.59 95.9353 19.7253 95.4593 19.996C94.9833 20.2573 94.5773 20.6167 94.2413 21.074C93.9147 21.522 93.6907 22.0307 93.5693 22.6ZM119.017 22.152V31H115.601V23.048C115.601 22.4973 115.466 21.998 115.195 21.55C114.925 21.0927 114.561 20.7333 114.103 20.472C113.655 20.2013 113.156 20.066 112.605 20.066C112.055 20.066 111.551 20.2013 111.093 20.472C110.645 20.7333 110.286 21.0927 110.015 21.55C109.754 21.998 109.623 22.4973 109.623 23.048V31H106.207L106.193 17H109.609L109.623 18.246C110.099 17.742 110.669 17.3453 111.331 17.056C111.994 16.7573 112.708 16.608 113.473 16.608C114.491 16.608 115.419 16.86 116.259 17.364C117.099 17.8587 117.767 18.526 118.261 19.366C118.765 20.1967 119.017 21.1253 119.017 22.152ZM129.31 20.416H126.594V31H123.178V20.416H121.106V17H123.178V12.604H126.594V17H129.31V20.416ZM140.914 31.364C139.588 31.364 138.342 31.1027 137.176 30.58C136.009 30.048 134.982 29.3153 134.096 28.382C133.218 27.4487 132.528 26.3707 132.024 25.148C131.529 23.916 131.282 22.6 131.282 21.2C131.282 19.7907 131.529 18.4747 132.024 17.252C132.528 16.02 133.218 14.942 134.096 14.018C134.982 13.0847 136.009 12.3567 137.176 11.834C138.342 11.302 139.588 11.036 140.914 11.036C142.5 11.036 143.961 11.4047 145.296 12.142C146.63 12.87 147.736 13.8453 148.614 15.068L145.562 16.706C145.011 16.0247 144.325 15.4787 143.504 15.068C142.692 14.6573 141.828 14.452 140.914 14.452C140.055 14.452 139.248 14.6293 138.492 14.984C137.736 15.3293 137.073 15.8147 136.504 16.44C135.934 17.056 135.491 17.7747 135.174 18.596C134.856 19.408 134.698 20.276 134.698 21.2C134.698 22.1333 134.856 23.006 135.174 23.818C135.5 24.63 135.948 25.3487 136.518 25.974C137.087 26.59 137.745 27.0753 138.492 27.43C139.248 27.7753 140.055 27.948 140.914 27.948C141.847 27.948 142.715 27.7427 143.518 27.332C144.33 26.912 145.011 26.3613 145.562 25.68L148.614 27.332C147.736 28.5453 146.63 29.5207 145.296 30.258C143.961 30.9953 142.5 31.364 140.914 31.364ZM151.16 31L151.146 17H154.562L154.576 18.246C155.052 17.742 155.622 17.3453 156.284 17.056C156.947 16.7573 157.661 16.608 158.426 16.608C158.94 16.608 159.453 16.6827 159.966 16.832L158.622 20.276C158.268 20.136 157.913 20.066 157.558 20.066C157.008 20.066 156.504 20.2013 156.046 20.472C155.598 20.7333 155.239 21.0927 154.968 21.55C154.707 21.998 154.576 22.4973 154.576 23.048V31H151.16ZM167.041 31.364C165.753 31.364 164.577 31.0327 163.513 30.37C162.458 29.7073 161.613 28.816 160.979 27.696C160.353 26.576 160.041 25.3393 160.041 23.986C160.041 22.9687 160.223 22.0167 160.587 21.13C160.951 20.234 161.45 19.45 162.085 18.778C162.729 18.0967 163.475 17.5647 164.325 17.182C165.174 16.7993 166.079 16.608 167.041 16.608C168.133 16.608 169.131 16.8413 170.037 17.308C170.951 17.7653 171.726 18.3953 172.361 19.198C172.995 20.0007 173.457 20.9153 173.747 21.942C174.036 22.9687 174.101 24.042 173.943 25.162H163.709C163.839 25.6847 164.054 26.156 164.353 26.576C164.651 26.9867 165.029 27.318 165.487 27.57C165.944 27.8127 166.462 27.9387 167.041 27.948C167.638 27.9573 168.179 27.8173 168.665 27.528C169.159 27.2293 169.57 26.828 169.897 26.324L173.383 27.136C172.813 28.3773 171.964 29.3947 170.835 30.188C169.705 30.972 168.441 31.364 167.041 31.364ZM163.597 22.6H170.485C170.382 22.04 170.163 21.536 169.827 21.088C169.5 20.6307 169.094 20.2667 168.609 19.996C168.123 19.7253 167.601 19.59 167.041 19.59C166.481 19.59 165.963 19.7253 165.487 19.996C165.011 20.2573 164.605 20.6167 164.269 21.074C163.942 21.522 163.718 22.0307 163.597 22.6ZM186.859 10H190.275V31H186.859V29.25C186.411 29.8753 185.847 30.384 185.165 30.776C184.484 31.168 183.695 31.364 182.799 31.364C181.782 31.364 180.83 31.1727 179.943 30.79C179.057 30.4073 178.273 29.88 177.591 29.208C176.919 28.5267 176.392 27.7427 176.009 26.856C175.627 25.9693 175.435 25.0173 175.435 24C175.435 22.9827 175.627 22.0307 176.009 21.144C176.392 20.2573 176.919 19.478 177.591 18.806C178.273 18.1247 179.057 17.5927 179.943 17.21C180.83 16.8273 181.782 16.636 182.799 16.636C183.695 16.636 184.484 16.832 185.165 17.224C185.847 17.6067 186.411 18.1153 186.859 18.75V10ZM182.841 28.074C183.569 28.074 184.213 27.892 184.773 27.528C185.333 27.164 185.772 26.674 186.089 26.058C186.407 25.4327 186.565 24.7467 186.565 24C186.565 23.244 186.407 22.558 186.089 21.942C185.772 21.3167 185.329 20.822 184.759 20.458C184.199 20.094 183.56 19.912 182.841 19.912C182.123 19.912 181.465 20.0987 180.867 20.472C180.279 20.836 179.808 21.326 179.453 21.942C179.108 22.558 178.935 23.244 178.935 24C178.935 24.756 179.113 25.442 179.467 26.058C179.822 26.674 180.293 27.164 180.881 27.528C181.479 27.892 182.132 28.074 182.841 28.074ZM193.638 17H197.054V31H193.638V17ZM195.374 15.194C194.87 15.194 194.446 15.0307 194.1 14.704C193.755 14.368 193.582 13.948 193.582 13.444C193.582 12.9493 193.755 12.534 194.1 12.198C194.446 11.862 194.866 11.694 195.36 11.694C195.855 11.694 196.27 11.862 196.606 12.198C196.952 12.534 197.124 12.9493 197.124 13.444C197.124 13.948 196.956 14.368 196.62 14.704C196.284 15.0307 195.869 15.194 195.374 15.194ZM207.924 20.416H205.208V31H201.792V20.416H199.72V17H201.792V12.604H205.208V17H207.924V20.416Z" fill="#01081B"/>
<defs>
<linearGradient id="paint0_linear_115_1291" x1="0.300048" y1="20.3386" x2="10.0302" y2="19.9903" gradientUnits="userSpaceOnUse">
<stop stop-color="#B974FF"/>
<stop offset="0.6071" stop-color="#932EFA"/>
<stop offset="1" stop-color="#6104C0"/>
</linearGradient>
<linearGradient id="paint1_linear_115_1291" x1="0.70528" y1="31.3388" x2="15.5845" y2="30.8064" gradientUnits="userSpaceOnUse">
<stop stop-color="#6104C0"/>
<stop offset="0.3929" stop-color="#932EFA"/>
<stop offset="1" stop-color="#B974FF"/>
</linearGradient>
<linearGradient id="paint2_linear_115_1291" x1="0.69105" y1="30.9361" x2="11.8079" y2="30.5382" gradientUnits="userSpaceOnUse">
<stop stop-color="#6104C0"/>
<stop offset="0.3929" stop-color="#932EFA"/>
<stop offset="1" stop-color="#B974FF"/>
</linearGradient>
<linearGradient id="paint3_linear_115_1291" x1="5.03751" y1="33.7203" x2="4.65814" y2="21.8788" gradientUnits="userSpaceOnUse">
<stop stop-color="#6104C0"/>
<stop offset="0.3929" stop-color="#932EFA"/>
<stop offset="1" stop-color="#B974FF"/>
</linearGradient>
<linearGradient id="paint4_linear_115_1291" x1="-0.000110223" y1="13.3411" x2="22.0017" y2="13.3411" gradientUnits="userSpaceOnUse">
<stop stop-color="#0437B9"/>
<stop offset="0.5612" stop-color="#2E68FD"/>
<stop offset="1" stop-color="#5E8BFC"/>
</linearGradient>
<linearGradient id="paint5_linear_115_1291" x1="10.8002" y1="13.9176" x2="16.542" y2="10.414" gradientUnits="userSpaceOnUse">
<stop stop-color="#5E8BFC"/>
<stop offset="0.2004" stop-color="#6B94FB"/>
<stop offset="0.4235" stop-color="#2E68FD"/>
<stop offset="1" stop-color="#0437B9"/>
</linearGradient>
<linearGradient id="paint6_linear_115_1291" x1="1.83482" y1="15.4572" x2="11.0724" y2="9.82036" gradientUnits="userSpaceOnUse">
<stop stop-color="#0437B9"/>
<stop offset="0.3929" stop-color="#2E68FD"/>
<stop offset="1" stop-color="#5E8BFC"/>
</linearGradient>
<linearGradient id="paint7_linear_115_1291" x1="18.0522" y1="33.4168" x2="18.0522" y2="22.2424" gradientUnits="userSpaceOnUse">
<stop stop-color="#5E8BFC"/>
<stop offset="0.4388" stop-color="#2E68FD"/>
<stop offset="1" stop-color="#0437B9"/>
</linearGradient>
<linearGradient id="paint8_linear_115_1291" x1="19.8119" y1="25.4115" x2="19.8119" y2="20.9717" gradientUnits="userSpaceOnUse">
<stop stop-color="#5E8BFC"/>
<stop offset="0.4388" stop-color="#2E68FD"/>
<stop offset="1" stop-color="#0437B9"/>
</linearGradient>
</defs>
</svg>
